<mxfile host="app.diagrams.net" modified="2023-08-16T20:58:02.815Z" agent="Mozilla/5.0 (Macintosh; Intel Mac OS X 10_15_7) AppleWebKit/537.36 (KHTML, like Gecko) Chrome/115.0.0.0 Safari/537.36" etag="tGZyaHc1Dpw80SHqbElc" version="21.6.8" type="github">
  <diagram name="Page-1" id="xcxawgrzeP9gJksNp7Wi">
    <mxGraphModel dx="734" dy="502" grid="1" gridSize="10" guides="1" tooltips="1" connect="1" arrows="1" fold="1" page="1" pageScale="1" pageWidth="827" pageHeight="1169" math="0" shadow="0">
      <root>
        <mxCell id="0" />
        <mxCell id="1" parent="0" />
        <mxCell id="9b093H8yOkUqxFXRSuRk-2" value="" style="rounded=0;whiteSpace=wrap;html=1;fillColor=#f5f5f5;fontColor=#333333;strokeColor=#666666;" vertex="1" parent="1">
          <mxGeometry x="240" y="480" width="280" height="130" as="geometry" />
        </mxCell>
        <mxCell id="9b093H8yOkUqxFXRSuRk-13" style="edgeStyle=orthogonalEdgeStyle;rounded=0;orthogonalLoop=1;jettySize=auto;html=1;exitX=0.5;exitY=1;exitDx=0;exitDy=0;entryX=0.75;entryY=0;entryDx=0;entryDy=0;" edge="1" parent="1" source="9b093H8yOkUqxFXRSuRk-1" target="9b093H8yOkUqxFXRSuRk-4">
          <mxGeometry relative="1" as="geometry">
            <Array as="points">
              <mxPoint x="460" y="470" />
              <mxPoint x="340" y="470" />
            </Array>
          </mxGeometry>
        </mxCell>
        <mxCell id="9b093H8yOkUqxFXRSuRk-1" value="Sequencer" style="rounded=0;whiteSpace=wrap;html=1;fillColor=#e1d5e7;strokeColor=#9673a6;" vertex="1" parent="1">
          <mxGeometry x="400" y="380" width="120" height="60" as="geometry" />
        </mxCell>
        <mxCell id="9b093H8yOkUqxFXRSuRk-15" style="edgeStyle=orthogonalEdgeStyle;rounded=0;orthogonalLoop=1;jettySize=auto;html=1;exitX=0.5;exitY=0;exitDx=0;exitDy=0;entryX=0.59;entryY=0.989;entryDx=0;entryDy=0;entryPerimeter=0;" edge="1" parent="1">
          <mxGeometry relative="1" as="geometry">
            <mxPoint x="285" y="515" as="sourcePoint" />
            <mxPoint x="285.79999999999995" y="439.34000000000003" as="targetPoint" />
          </mxGeometry>
        </mxCell>
        <mxCell id="9b093H8yOkUqxFXRSuRk-4" value="Rollup Contract" style="rounded=0;whiteSpace=wrap;html=1;fillColor=#dae8fc;strokeColor=#6c8ebf;" vertex="1" parent="1">
          <mxGeometry x="250" y="515" width="120" height="60" as="geometry" />
        </mxCell>
        <mxCell id="9b093H8yOkUqxFXRSuRk-5" value="L1/L2 &lt;br&gt;Bridge Contract" style="rounded=0;whiteSpace=wrap;html=1;fillColor=#fff2cc;strokeColor=#d6b656;" vertex="1" parent="1">
          <mxGeometry x="390" y="515" width="120" height="60" as="geometry" />
        </mxCell>
        <mxCell id="9b093H8yOkUqxFXRSuRk-16" style="edgeStyle=orthogonalEdgeStyle;rounded=0;orthogonalLoop=1;jettySize=auto;html=1;exitX=0.25;exitY=1;exitDx=0;exitDy=0;entryX=0.163;entryY=0.018;entryDx=0;entryDy=0;entryPerimeter=0;" edge="1" parent="1">
          <mxGeometry relative="1" as="geometry">
            <mxPoint x="270" y="440" as="sourcePoint" />
            <mxPoint x="269.55999999999995" y="516.0799999999999" as="targetPoint" />
          </mxGeometry>
        </mxCell>
        <mxCell id="9b093H8yOkUqxFXRSuRk-6" value="ZK Prover" style="rounded=0;whiteSpace=wrap;html=1;fillColor=#f8cecc;strokeColor=#b85450;" vertex="1" parent="1">
          <mxGeometry x="240" y="380" width="120" height="60" as="geometry" />
        </mxCell>
        <mxCell id="9b093H8yOkUqxFXRSuRk-8" style="edgeStyle=orthogonalEdgeStyle;rounded=0;orthogonalLoop=1;jettySize=auto;html=1;exitX=0;exitY=1;exitDx=0;exitDy=0;exitPerimeter=0;entryX=1;entryY=0.5;entryDx=0;entryDy=0;" edge="1" parent="1" source="9b093H8yOkUqxFXRSuRk-7" target="9b093H8yOkUqxFXRSuRk-5">
          <mxGeometry relative="1" as="geometry" />
        </mxCell>
        <mxCell id="9b093H8yOkUqxFXRSuRk-9" value="Bridge Assets" style="edgeLabel;html=1;align=center;verticalAlign=middle;resizable=0;points=[];" vertex="1" connectable="0" parent="9b093H8yOkUqxFXRSuRk-8">
          <mxGeometry x="-0.024" y="-1" relative="1" as="geometry">
            <mxPoint x="-24" y="-14" as="offset" />
          </mxGeometry>
        </mxCell>
        <mxCell id="9b093H8yOkUqxFXRSuRk-10" style="edgeStyle=orthogonalEdgeStyle;rounded=0;orthogonalLoop=1;jettySize=auto;html=1;exitX=0;exitY=0.3333333333333333;exitDx=0;exitDy=0;exitPerimeter=0;entryX=1;entryY=0.5;entryDx=0;entryDy=0;" edge="1" parent="1" source="9b093H8yOkUqxFXRSuRk-7" target="9b093H8yOkUqxFXRSuRk-1">
          <mxGeometry relative="1" as="geometry">
            <Array as="points">
              <mxPoint x="600" y="410" />
            </Array>
          </mxGeometry>
        </mxCell>
        <mxCell id="9b093H8yOkUqxFXRSuRk-7" value="User" style="shape=umlActor;verticalLabelPosition=bottom;verticalAlign=top;html=1;outlineConnect=0;" vertex="1" parent="1">
          <mxGeometry x="600" y="430" width="30" height="60" as="geometry" />
        </mxCell>
        <mxCell id="9b093H8yOkUqxFXRSuRk-11" value="Send Transactions" style="text;html=1;align=center;verticalAlign=middle;resizable=0;points=[];autosize=1;strokeColor=none;fillColor=none;" vertex="1" parent="1">
          <mxGeometry x="520" y="388" width="120" height="30" as="geometry" />
        </mxCell>
        <mxCell id="9b093H8yOkUqxFXRSuRk-14" value="Sequence Batches" style="text;html=1;align=center;verticalAlign=middle;resizable=0;points=[];autosize=1;strokeColor=none;fillColor=none;" vertex="1" parent="1">
          <mxGeometry x="340" y="448" width="120" height="30" as="geometry" />
        </mxCell>
        <mxCell id="9b093H8yOkUqxFXRSuRk-17" value="Verify Batches" style="text;html=1;align=center;verticalAlign=middle;resizable=0;points=[];autosize=1;strokeColor=none;fillColor=none;" vertex="1" parent="1">
          <mxGeometry x="180" y="448" width="100" height="30" as="geometry" />
        </mxCell>
        <mxCell id="9b093H8yOkUqxFXRSuRk-19" value="TX Data" style="text;html=1;align=center;verticalAlign=middle;resizable=0;points=[];autosize=1;strokeColor=none;fillColor=none;" vertex="1" parent="1">
          <mxGeometry x="275" y="448" width="70" height="30" as="geometry" />
        </mxCell>
        <mxCell id="9b093H8yOkUqxFXRSuRk-20" value="&lt;font style=&quot;font-size: 9px;&quot;&gt;RPC&lt;/font&gt;" style="rounded=0;whiteSpace=wrap;html=1;" vertex="1" parent="1">
          <mxGeometry x="497" y="395" width="23" height="30" as="geometry" />
        </mxCell>
      </root>
    </mxGraphModel>
  </diagram>
</mxfile>
